<svg data-name="Layer 1" xmlns="http://www.w3.org/2000/svg" viewBox="0 0 90.06 90.02">
  <path d="m85.83,44l-20.3-7.4-3.3-1.2c-3.3-1.2-6.9.5-8.1,3.8l-3.5,9.9-5,13.7c-1.2,3.3.5,6.9,3.8,8.1l20.3,7.4,3.3,1.2c3.3,1.2,6.9-.5,8.1-3.8l3.6-9.9,5-13.7c1.1-3.3-.6-6.9-3.9-8.1Zm-30.8,23.9c-.8,0-1.5-.2-2.1-.6-1.2-.7-2.1-2.1-2.1-3.6s.8-2.9,2.1-3.6c.6-.4,1.3-.6,2.1-.6,2.3,0,4.2,1.9,4.2,4.2s-1.9,4.2-4.2,4.2Zm14.7-6.9c-.6.4-1.3.6-2.1.6s-1.5-.2-2.1-.6c-1.2-.7-2.1-2.1-2.1-3.6s.8-2.9,2.1-3.6c.6-.4,1.3-.6,2.1-.6s1.5.2,2.1.6c1.2.7,2.1,2.1,2.1,3.6s-.9,2.9-2.1,3.6Zm12.5-6.2c-.6.4-1.3.6-2.1.6-2.3,0-4.2-1.9-4.2-4.2s1.9-4.2,4.2-4.2c.8,0,1.5.2,2.1.6,1.2.7,2.1,2.1,2.1,3.6s-.8,2.8-2.1,3.6Z"/>
  <path d="m36.93,52.9l-9.6-1.8-8.4-1.7-6.6-1.3c-3.4-.7-6.7,1.6-7.4,5l-1.9,9.6-1.6,8.4-1.3,6.6c-.7,3.4,1.6,6.7,5,7.4l9.6,1.9,8.4,1.6,6.6,1.3c3.4.7,6.7-1.6,7.4-5l1.9-9.6,1.6-8.4,1.3-6.6c.7-3.4-1.6-6.7-5-7.4Zm-3.3,3.6c2.3,0,4.2,1.9,4.2,4.2s-1.9,4.2-4.2,4.2-4.2-1.9-4.2-4.2,1.9-4.2,4.2-4.2Zm-21-4.2c2.3,0,4.2,1.9,4.2,4.2s-1.9,4.2-4.2,4.2-4.2-1.9-4.2-4.2,1.9-4.2,4.2-4.2Zm-4.2,29.3c-2.3,0-4.2-1.9-4.2-4.2s1.9-4.2,4.2-4.2,4.2,1.9,4.2,4.2-1.8,4.2-4.2,4.2Zm21,4.2c-2.3,0-4.2-1.9-4.2-4.2s1.9-4.2,4.2-4.2,4.2,1.9,4.2,4.2-1.9,4.2-4.2,4.2Z"/>
  <path d="m49.83,30l-1.7-9.7-1.5-8.4-1.2-6.7c-.6-3.4-3.9-5.7-7.3-5.1l-9.7,1.7-8.4,1.5-6.7,1.2c-3.4.6-5.7,3.9-5.1,7.3l1.7,9.7,1.5,8.4,1.2,6.7c.6,3.4,3.9,5.7,7.3,5.1l9.7-1.7,8.4-1.5,6.7-1.2c3.4-.6,5.7-3.8,5.1-7.3ZM12.73,11.1c.3-1.3,1.2-2.3,2.5-2.8s2.7-.3,3.8.4c.7.5,1.3,1.1,1.6,2,.8,2.2-.2,4.6-2.4,5.4-2.2.8-4.6-.2-5.4-2.4-.3-.8-.3-1.7-.1-2.6Zm9.1,26.1c-.8.3-1.7.4-2.4.2-1.3-.3-2.5-1.2-3-2.6-.5-1.4-.3-2.8.5-3.9.5-.7,1.1-1.2,1.9-1.5,2.2-.8,4.6.2,5.4,2.4.9,2.1-.2,4.5-2.4,5.4Zm10.9-15.4c-.1.5-.3.9-.6,1.3-.5.7-1.1,1.2-1.9,1.5-.6.2-1.3.3-1.9.2-.7-.1-1.3-.3-1.9-.7-.7-.5-1.3-1.1-1.6-2-.2-.6-.3-1.2-.3-1.8.1-1,.5-1.9,1.1-2.6.4-.5.9-.8,1.6-1.1.8-.3,1.7-.4,2.4-.2.7.2,1.4.6,2,1.1.4.4.8.9,1,1.5.3,1.1.4,1.9.1,2.8Zm1.2-11.7c-.8-2.2.2-4.6,2.4-5.4.6-.2,1.3-.3,1.9-.2,1.5.1,2.9,1.1,3.5,2.7.6,1.5.2,3.2-.8,4.3-.4.5-.9.8-1.6,1.1-2.2.8-4.6-.3-5.4-2.5Zm9,23.5c-1.6.6-3.3.2-4.4-.9-.4-.4-.8-.9-1-1.5-.8-2.2.2-4.6,2.4-5.4s4.6.2,5.4,2.4c.2.6.3,1.2.3,1.8-.2,1.5-1.2,3-2.7,3.6Z"/>
</svg>
