<svg version="1.1" id="Layer_1" xmlns="http://www.w3.org/2000/svg" xmlns:xlink="http://www.w3.org/1999/xlink" x="0px" y="0px"
	 viewBox="0 0 77 87.6" style="enable-background:new 0 0 77 87.6;" xml:space="preserve">
<polygon points="0.8,66.5 34.6,85.7 11.1,60.5 "/>
<polygon points="0,25.2 0,65.2 10.3,59.2 "/>
<polygon points="37,11.6 0.2,20.7 11.4,57.7 "/>
<polygon points="37.7,0 4.7,18 37.7,9.9 "/>
<polygon points="64.5,58.8 61.7,53.8 38.5,12 12.5,58.8 "/>
<polygon points="64,60.3 12.9,60.3 38.5,87.6 46.4,79.1 "/>
<polygon points="65.9,60.5 42.4,85.7 76.2,66.5 69.3,62.5 "/>
<polygon points="77,65.2 77,25.2 66.6,59.2 "/>
<polygon points="40,11.6 65.5,57.7 76.8,20.7 47,13.4 "/>
<polygon points="39.2,0 39.2,9.9 72.3,18 "/>
</svg>
