<svg viewBox="0 0 380.7 380.7" xmlns="http://www.w3.org/2000/svg"><path d="m370.82 158.03-40.6-2.25c-3.51-14.24-9.14-27.65-16.53-39.87l27.13-30.31c3.85-3.86 3.85-10.12 0-13.98l-31.74-31.74c-3.86-3.85-10.12-3.85-13.98 0l-30.31 27.13c-12.22-7.39-25.63-13.02-39.87-16.53l-2.25-40.6c0-5.45-4.42-9.88-9.88-9.88h-44.88c-5.46 0-9.88 4.43-9.88 9.88l-2.25 40.6c-14.24 3.51-27.65 9.14-39.87 16.53l-30.31-27.13c-3.86-3.85-10.12-3.85-13.98 0l-31.74 31.74c-3.85 3.86-3.85 10.12 0 13.98l27.13 30.31c-7.39 12.22-13.02 25.63-16.53 39.87l-40.6 2.25c-5.45 0-9.88 4.42-9.88 9.88v44.88c0 5.46 4.43 9.88 9.88 9.88l40.6 2.25c3.51 14.24 9.14 27.65 16.53 39.87l-27.13 30.31c-3.85 3.86-3.85 10.12 0 13.98l31.74 31.74c3.86 3.85 10.12 3.85 13.98 0l30.31-27.13c12.22 7.39 25.63 13.02 39.87 16.53l2.25 40.6c0 5.45 4.42 9.88 9.88 9.88h44.88c5.46 0 9.88-4.43 9.88-9.88l2.25-40.6c14.24-3.51 27.65-9.14 39.87-16.53l30.31 27.13c3.86 3.85 10.12 3.85 13.98 0l31.74-31.74c3.85-3.86 3.85-10.12 0-13.98l-27.13-30.31c7.39-12.22 13.02-25.63 16.53-39.87l40.6-2.25c5.45 0 9.88-4.42 9.88-9.88v-44.88c0-5.46-4.43-9.88-9.88-9.88zm-180.47 100.89c-39.79 0-72.04-30.7-72.04-68.57s32.26-68.57 72.04-68.57 72.04 30.7 72.04 68.57-32.26 68.57-72.04 68.57z" fill="#c1c1c1"/></svg>